<?xml version="1.0" standalone="no"?>
<!DOCTYPE svg PUBLIC "-//W3C//DTD SVG 20010904//EN"
 "http://www.w3.org/TR/2001/REC-SVG-20010904/DTD/svg10.dtd">
<svg version="1.0" xmlns="http://www.w3.org/2000/svg"
 width="626.000000pt" height="626.000000pt" viewBox="0 0 626.000000 626.000000"
 preserveAspectRatio="xMidYMid meet">
<metadata>
Created by potrace 1.15, written by Peter Selinger 2001-2017
</metadata>
<g transform="translate(0.000000,626.000000) scale(0.100000,-0.100000)"
fill="#000000" stroke="none">
<path d="M3135 4970 c-10 -30 -34 -50 -61 -50 -30 0 -30 -10 0 -39 20 -19 23
-29 19 -62 l-6 -40 33 20 c30 18 36 18 61 5 42 -21 48 -18 42 20 -4 27 0 42
17 63 l22 28 -37 10 c-22 7 -43 22 -53 38 -20 32 -28 34 -37 7z"/>
<path d="M2760 4902 c0 -38 -3 -43 -37 -61 l-38 -19 37 -18 c29 -14 39 -25 44
-51 7 -40 13 -41 45 -7 19 21 30 24 56 19 37 -7 41 3 17 39 -14 22 -14 28 0
61 l16 37 -41 -7 c-36 -6 -44 -4 -70 21 l-29 28 0 -42z"/>
<path d="M3510 4905 c-20 -22 -32 -26 -62 -23 -41 4 -45 -3 -24 -42 12 -21 12
-29 0 -52 -20 -39 -18 -41 23 -35 31 5 42 2 65 -19 l27 -26 6 36 c5 27 15 41
36 52 37 18 37 28 -1 44 -23 9 -31 21 -37 52 l-8 40 -25 -27z"/>
<path d="M2426 4720 c5 -31 2 -44 -16 -67 l-22 -28 39 -8 c28 -5 43 -15 56
-40 l19 -32 19 37 c15 29 27 39 55 44 l35 7 -29 31 c-24 25 -29 37 -25 64 6
37 2 38 -38 15 -27 -16 -31 -16 -64 0 l-35 17 6 -40z"/>
<path d="M3743 4703 c6 -34 3 -43 -18 -63 -27 -26 -20 -40 22 -40 16 0 28 -11
42 -37 l19 -38 18 38 c13 26 24 37 40 37 12 0 30 3 39 6 14 6 12 11 -11 35
-22 23 -26 34 -21 63 7 41 6 41 -35 20 -31 -16 -30 -17 -92 15 -5 2 -6 -13 -3
-36z"/>
<path d="M2944 4645 c-81 -18 -184 -59 -268 -109 -91 -53 -220 -181 -279 -276
l-46 -76 -143 -28 c-79 -15 -186 -41 -238 -58 -103 -33 -233 -89 -244 -106 -3
-5 3 -97 14 -203 11 -106 20 -203 20 -215 0 -20 -17 -28 -157 -74 -87 -29
-163 -57 -169 -64 -6 -6 -39 -220 -74 -476 -34 -256 -65 -479 -67 -496 l-5
-31 88 -12 c49 -6 172 -20 274 -31 102 -11 204 -23 227 -26 l42 -5 26 -87
c106 -347 292 -542 825 -862 125 -75 336 -180 361 -180 24 0 251 115 382 194
507 306 692 500 797 833 l32 102 42 6 c22 3 122 14 221 24 296 32 365 43 365
55 0 6 -20 153 -44 326 -24 173 -54 392 -67 485 -12 94 -27 175 -33 181 -6 6
-82 35 -168 64 -119 40 -158 57 -158 69 0 9 9 106 20 214 11 109 18 203 14
209 -11 17 -139 73 -245 106 -53 17 -160 43 -237 58 l-140 27 -48 76 c-123
194 -332 340 -552 387 -83 17 -286 17 -368 -1z m-64 -119 c0 -1 -5 -17 -11
-34 -8 -25 -26 -40 -80 -68 -38 -20 -97 -63 -133 -95 -53 -49 -70 -59 -100
-59 -20 0 -36 4 -36 8 0 14 130 135 182 171 72 48 178 95 178 77z m578 -21
c29 -13 74 -39 100 -56 52 -36 192 -167 192 -181 0 -4 -16 -8 -36 -8 -30 0
-47 10 -105 64 -38 35 -100 80 -138 100 -54 28 -71 43 -80 68 -6 17 -11 33
-11 34 0 10 30 2 78 -21z m-478 -165 c63 -44 120 -88 125 -98 6 -10 8 -56 5
-107 l-5 -90 -112 -82 -113 -82 -77 26 c-43 14 -83 31 -89 37 -7 6 -33 76 -59
155 l-46 144 38 39 c44 46 180 138 203 138 9 0 67 -36 130 -80z m514 36 c67
-44 146 -114 146 -131 0 -8 -22 -83 -50 -168 l-50 -154 -72 -22 c-40 -11 -77
-21 -82 -21 -5 0 -60 38 -122 85 l-112 84 -4 78 c-2 43 -1 89 2 102 4 16 44
50 125 107 135 93 136 94 219 40z m-1198 -333 c-26 -109 -36 -216 -31 -300 l7
-93 -205 0 -205 0 -6 38 c-8 48 -26 212 -26 234 0 26 176 87 380 131 94 21 93
21 86 -10z m1811 -4 c125 -28 277 -76 312 -98 11 -7 11 -26 2 -112 -6 -57 -14
-121 -17 -141 l-6 -38 -207 0 -206 0 9 83 c8 77 -4 197 -30 310 -3 15 -4 27
-1 27 3 0 68 -14 144 -31z m-1215 -320 c38 -114 45 -146 35 -158 -6 -9 -29
-37 -50 -63 l-39 -48 -149 0 -149 0 -18 38 c-30 59 -60 152 -67 213 l-7 56
112 80 111 81 87 -28 87 -28 47 -143z m799 97 l114 -83 -3 -44 c-4 -49 -42
-165 -70 -213 l-18 -31 -160 -3 -161 -2 -36 56 c-21 31 -37 61 -37 66 0 18 83
273 92 283 8 9 129 52 154 54 7 1 63 -37 125 -83z m-1294 -54 c15 -12 24 -37
33 -88 6 -38 26 -106 43 -150 27 -66 31 -85 23 -112 -5 -18 -13 -32 -18 -32
-13 0 -82 154 -101 225 -9 33 -19 86 -23 118 -7 63 2 72 43 39z m1509 -41
c-13 -111 -59 -243 -120 -339 -29 -47 -41 -47 -51 -2 -5 22 -1 40 14 64 31 49
68 154 81 227 9 49 18 69 38 86 15 12 31 22 36 23 5 0 6 -26 2 -59z m-1605
-178 c12 -38 37 -99 56 -137 19 -37 32 -70 30 -72 -4 -5 -342 20 -444 32 -59
7 -58 5 -68 129 -4 44 -9 88 -11 98 -5 16 9 17 205 17 l209 0 23 -67z m2095
50 c-2 -10 -7 -54 -11 -98 -10 -125 -8 -122 -73 -129 -118 -13 -435 -36 -439
-32 -2 2 11 35 30 72 19 38 44 99 56 137 l23 67 209 0 c196 0 210 -1 205 -17z
m-1080 -91 c7 -9 21 -31 30 -49 17 -30 17 -35 0 -87 l-17 -56 -214 0 -213 0
-20 58 -20 59 39 49 38 49 182 -3 c157 -3 185 -6 195 -20z m-1641 -187 c186
-21 537 -52 770 -67 262 -16 1108 -16 1370 0 239 16 700 57 840 76 55 8 103
11 107 7 10 -9 61 -378 55 -394 -3 -9 -29 -17 -69 -21 -34 -4 -79 -9 -98 -12
l-36 -6 1 59 c0 49 -5 67 -27 99 -58 83 -123 99 -325 79 -222 -23 -613 -45
-783 -45 -175 0 -205 -9 -279 -75 l-41 -37 0 49 0 50 -166 6 c-155 6 -170 5
-216 -15 -29 -12 -66 -41 -92 -69 l-44 -49 -20 33 c-29 46 -59 72 -122 103
-45 23 -68 28 -130 28 -86 -1 -144 -21 -205 -75 l-38 -34 6 58 c4 31 6 57 5
57 -2 0 -64 7 -138 16 -222 27 -248 28 -296 9 -45 -17 -99 -69 -115 -112 -5
-14 -10 -48 -11 -75 l-1 -49 -61 7 c-33 4 -65 9 -70 12 -9 5 -4 61 25 265 10
75 19 139 19 142 0 2 12 2 28 0 15 -3 86 -11 157 -20z m184 -235 c19 -5 44
-19 57 -31 21 -20 22 -20 28 -2 5 15 14 17 61 15 l56 -4 -7 -71 c-3 -40 -9
-75 -13 -79 -4 -4 -30 -5 -59 -1 -41 4 -52 10 -52 24 0 23 -46 59 -75 59 -12
0 -28 -7 -35 -15 -19 -22 1 -41 95 -86 100 -49 125 -76 125 -132 0 -69 -40
-107 -126 -121 -50 -7 -127 14 -159 44 l-23 22 -7 -22 c-6 -20 -11 -22 -58
-15 -29 3 -53 8 -55 10 -2 2 -1 36 3 76 l7 71 56 -4 c31 -3 58 -10 60 -16 15
-45 87 -76 122 -53 25 17 -1 43 -71 72 -89 37 -139 85 -139 133 0 100 97 159
209 126z m2629 -30 c18 -11 40 -36 48 -55 17 -42 8 -66 -38 -105 l-29 -26 38
-24 c24 -16 41 -37 48 -57 10 -36 35 -45 35 -13 0 13 7 20 20 20 17 0 20 -7
20 -45 0 -70 -47 -105 -127 -92 -47 8 -81 41 -89 86 -10 59 -14 69 -33 74 -31
8 -40 -6 -34 -51 4 -31 10 -42 23 -42 12 0 19 -10 23 -32 3 -18 2 -36 -2 -40
-3 -4 -50 -10 -103 -14 -94 -6 -98 -6 -98 14 0 11 -3 28 -6 37 -5 11 0 18 15
22 17 4 21 11 17 27 -2 11 -8 68 -12 125 -6 87 -10 104 -24 108 -12 3 -20 17
-23 41 -2 21 -3 39 -1 40 5 7 146 19 224 21 59 1 82 -3 108 -19z m-1993 -45
c67 -41 99 -103 97 -190 -1 -75 -25 -130 -78 -173 -91 -75 -241 -60 -322 32
-59 68 -67 177 -18 261 44 74 105 105 202 102 59 -2 79 -7 119 -32z m1569 -26
c4 -34 5 -63 3 -65 -2 -3 -27 -7 -56 -11 -50 -6 -51 -5 -51 21 0 25 -3 26 -51
26 l-50 0 3 -42 3 -42 58 3 57 2 0 -30 c0 -17 1 -34 3 -38 1 -5 -9 -9 -23 -11
-91 -10 -90 -9 -90 -62 0 -54 0 -54 63 -44 33 6 37 10 37 35 0 28 1 29 54 29
l53 0 7 -61 c4 -34 5 -64 1 -67 -7 -7 -366 -30 -377 -25 -5 2 -8 19 -8 38 0
24 5 34 18 37 15 3 17 15 14 108 -4 136 -9 160 -33 160 -15 0 -19 7 -19 39 l0
39 83 6 c45 4 100 8 122 9 22 2 70 4 106 5 l66 2 7 -61z m-1127 24 c27 -12 37
-13 42 -4 5 8 26 11 57 9 l49 -3 3 -83 c3 -94 0 -99 -71 -88 -35 6 -45 12 -57
39 -25 53 -87 49 -114 -7 -59 -125 46 -242 144 -160 l31 27 35 -34 c19 -18 34
-38 34 -43 0 -20 -88 -67 -140 -75 -150 -24 -270 68 -270 206 0 92 51 181 124
214 51 23 88 24 133 2z m500 0 c23 -11 37 -13 41 -6 4 6 28 14 55 18 l47 7 0
-44 c0 -25 3 -66 6 -92 l7 -46 -59 0 c-57 0 -60 2 -74 33 -30 65 -111 39 -126
-40 -23 -121 74 -198 158 -124 l33 29 40 -34 40 -33 -24 -25 c-41 -44 -100
-66 -174 -66 -36 0 -78 5 -94 11 -67 25 -132 119 -133 189 0 90 53 184 122
219 52 25 88 27 135 4z m-1926 -118 l46 -6 -14 -112 c-21 -174 -32 -159 127
-180 230 -30 253 -31 308 -13 27 9 65 32 85 52 l35 35 49 -49 c127 -127 350
-121 456 10 l30 38 17 -28 c10 -16 37 -45 60 -65 108 -92 275 -90 400 5 l52
40 32 -30 c60 -57 112 -77 206 -77 76 0 93 3 151 33 37 17 69 32 73 32 3 0 6
-11 6 -25 0 -24 2 -25 68 -25 126 1 822 52 899 66 13 2 38 18 58 35 46 41 59
90 47 183 -5 39 -9 72 -8 73 1 1 31 6 68 10 l66 9 6 -30 c18 -110 48 -357 44
-361 -20 -21 -710 -84 -1146 -106 -312 -15 -1194 -6 -1482 15 -382 28 -855 78
-868 91 -3 3 5 78 17 167 32 234 30 226 49 222 10 -1 38 -6 63 -9z m849 -555
c390 -28 1270 -22 1709 11 83 7 154 10 156 7 3 -3 -2 -25 -11 -50 -18 -53 -18
-53 -179 -63 -55 -3 -115 -8 -132 -11 l-33 -5 0 -174 0 -175 -105 0 -105 0 0
171 0 171 -62 -6 c-35 -3 -129 -8 -210 -12 l-148 -6 0 -159 0 -159 -110 0
-110 0 0 159 0 158 -127 7 c-71 3 -165 9 -210 13 l-83 6 0 -172 0 -171 -105 0
-105 0 0 179 0 178 -52 7 c-29 3 -103 9 -165 12 l-112 7 -16 45 c-8 25 -15 48
-15 50 0 3 44 2 98 -2 53 -4 158 -11 232 -16z m660 -620 c0 -39 -1 -40 -35
-40 -25 0 -35 4 -35 16 0 11 -8 14 -27 12 -24 -3 -28 -8 -28 -33 0 -27 3 -30
38 -33 28 -2 37 -8 37 -22 0 -14 -9 -20 -37 -22 -31 -2 -39 -7 -41 -26 -3 -17
2 -25 17 -29 12 -3 21 -14 21 -24 0 -17 -8 -19 -65 -19 -58 0 -65 2 -65 20 0
11 5 20 10 20 6 0 10 35 10 85 0 47 -4 85 -9 85 -12 0 -23 29 -15 41 3 5 54 9
115 9 l109 0 0 -40z m276 29 c4 -8 9 -8 17 0 6 6 24 11 39 11 25 0 28 -4 28
-32 0 -59 -10 -78 -40 -78 -19 0 -30 7 -38 25 -12 27 -43 33 -60 12 -19 -23
-25 -67 -12 -97 16 -39 45 -47 80 -22 27 20 29 20 44 3 25 -28 19 -41 -28 -62
-91 -40 -186 14 -186 107 0 57 24 110 59 129 31 17 87 19 97 4z"/>
<path d="M2335 2926 c-41 -41 -47 -175 -9 -217 24 -27 60 -24 80 7 39 58 35
183 -6 216 -29 23 -36 23 -65 -6z"/>
<path d="M2252 4495 c-16 -20 -29 -25 -62 -25 l-41 0 22 -31 c18 -26 20 -35
10 -55 -18 -40 -14 -47 24 -41 28 5 41 1 65 -20 l30 -25 0 29 c0 32 13 52 49
76 l25 16 -37 16 c-28 12 -39 23 -44 45 -8 41 -18 45 -41 15z"/>
<path d="M4000 4460 c0 -25 -7 -35 -37 -52 -33 -20 -34 -23 -18 -32 35 -21 55
-46 55 -71 0 -31 10 -32 39 -1 19 20 27 22 59 15 45 -10 49 -7 28 23 -20 28
-20 45 -1 82 l15 29 -39 -6 c-33 -4 -43 -1 -62 19 -30 32 -39 30 -39 -6z"/>
</g>
</svg>
